<?xml version="1.0" encoding="utf-8"?>
<!-- Generator: Adobe Illustrator 17.0.0, SVG Export Plug-In . SVG Version: 6.00 Build 0)  -->
<!DOCTYPE svg PUBLIC "-//W3C//DTD SVG 1.1//EN" "http://www.w3.org/Graphics/SVG/1.1/DTD/svg11.dtd">
<svg version="1.1" xmlns="http://www.w3.org/2000/svg" xmlns:xlink="http://www.w3.org/1999/xlink" x="0px" y="0px" width="268px"
	 height="270px" viewBox="0 0 268 270" enable-background="new 0 0 268 270" xml:space="preserve">
<g id="marker">
	<path display="none" fill="none" stroke="#000000" stroke-width="3" d="M137.539,146.13"/>
	<g>
		<path fill="#67CE12" d="M137.591,152.782c0.253-4.911,2.959-12.888,6.881-17.909c2.137-2.735,3.12-5.401,3.12-7.019
			c0-5.618-4.501-10.173-10.053-10.173h0c-5.552,0-10.053,4.555-10.053,10.173c0,1.618,0.983,4.284,3.12,7.019
			c3.922,5.021,6.629,12.998,6.881,17.909H137.591z"/>
		<path d="M137.956,153.167h-0.834l-0.019-0.365c-0.243-4.729-2.854-12.64-6.8-17.692c-2.361-3.022-3.202-5.729-3.202-7.256
			c0-5.821,4.682-10.557,10.438-10.557c5.755,0,10.438,4.736,10.438,10.557c0,1.526-0.841,4.234-3.202,7.256
			c-3.947,5.052-6.557,12.963-6.8,17.692L137.956,153.167L137.956,153.167z M137.54,118.066c-5.331,0-9.669,4.391-9.669,9.788
			c0,1.334,0.796,3.911,3.039,6.782c3.353,4.292,5.764,10.603,6.63,15.398c0.866-4.795,3.277-11.106,6.63-15.398
			c2.243-2.871,3.039-5.448,3.039-6.782C147.208,122.457,142.871,118.066,137.54,118.066L137.54,118.066z"/>
	</g>
</g>
<g id="dot">
	<circle cx="137.488" cy="127.479" r="4.264"/>
</g>
<g id="letter_arial_font" display="none">
	<g display="inline">
		<path d="M116.132,124.03l17.594-45.812h6.531l18.75,45.812h-6.906l-5.344-13.875h-19.156l-5.031,13.875H116.132z M129.351,105.218
			h15.531l-4.781-12.688c-1.459-3.854-2.542-7.021-3.25-9.5c-0.584,2.938-1.406,5.854-2.469,8.75L129.351,105.218z"/>
	</g>
</g>
</svg>
