<?xml version="1.0" encoding="utf-8"?>
<!-- Generator: Adobe Illustrator 17.0.0, SVG Export Plug-In . SVG Version: 6.00 Build 0)  -->
<!DOCTYPE svg PUBLIC "-//W3C//DTD SVG 1.1//EN" "http://www.w3.org/Graphics/SVG/1.1/DTD/svg11.dtd">
<svg version="1.1" xmlns="http://www.w3.org/2000/svg" xmlns:xlink="http://www.w3.org/1999/xlink" x="0px" y="0px" width="268px"
	 height="270px" viewBox="0 0 268 270" enable-background="new 0 0 268 270" xml:space="preserve">
<g id="marker">
	<path display="none" fill="none" stroke="#000000" stroke-width="3" d="M137.539,146.13"/>
	<g>
		<path fill="#FF9B00" d="M137.601,156.145c0.301-5.853,3.526-15.358,8.2-21.341c2.547-3.26,3.718-6.436,3.718-8.364
			c0-6.695-5.363-12.122-11.979-12.122h0c-6.616,0-11.979,5.427-11.979,12.122c0,1.928,1.172,5.104,3.718,8.364
			c4.674,5.983,7.899,15.488,8.2,21.341H137.601z"/>
		<path d="M138.036,156.604h-0.993l-0.022-0.435c-0.29-5.636-3.4-15.062-8.103-21.082c-2.813-3.601-3.815-6.827-3.815-8.646
			c0-6.937,5.579-12.58,12.438-12.58c6.858,0,12.438,5.643,12.438,12.58c0,1.819-1.002,5.045-3.815,8.646
			c-4.703,6.02-7.813,15.446-8.103,21.082L138.036,156.604L138.036,156.604z M137.54,114.777c-6.353,0-11.521,5.232-11.521,11.664
			c0,1.59,0.948,4.661,3.621,8.082c3.995,5.114,6.868,12.635,7.9,18.348c1.032-5.713,3.905-13.234,7.9-18.348
			c2.672-3.421,3.621-6.492,3.621-8.082C149.061,120.009,143.892,114.777,137.54,114.777L137.54,114.777z"/>
	</g>
</g>
<g id="dot">
	<circle cx="137.478" cy="125.993" r="5.08"/>
</g>
<g id="letter_arial_font" display="none">
	<g display="inline">
		<path d="M116.132,124.03l17.594-45.812h6.531l18.75,45.812h-6.906l-5.344-13.875h-19.156l-5.031,13.875H116.132z M129.351,105.218
			h15.531l-4.781-12.688c-1.459-3.854-2.542-7.021-3.25-9.5c-0.584,2.938-1.406,5.854-2.469,8.75L129.351,105.218z"/>
	</g>
</g>
</svg>
